<?xml version="1.0" encoding="utf-8"?>
<!-- Generator: Adobe Illustrator 22.0.1, SVG Export Plug-In . SVG Version: 6.00 Build 0)  -->
<svg version="1.1" id="Layer" xmlns="http://www.w3.org/2000/svg" xmlns:xlink="http://www.w3.org/1999/xlink" x="0px" y="0px"
	 viewBox="0 0 160 160" style="enable-background:new 0 0 160 160;" xml:space="preserve">
<style type="text/css">
	.st0{fill:#FFFFFF;}
	.st1{fill:#00EBC8;}
</style>
<g id="Circle">
	<path id="cShape_4_" class="st0" d="M158.4,64H1.6C4,52.2,9,41.3,16,32h128C151,41.3,156,52.2,158.4,64z"/>
	<path id="cShape_3_" class="st0" d="M158.4,96c-2.4,11.8-7.4,22.7-14.4,32H16c-7-9.3-12-20.2-14.4-32H158.4z"/>
	<path id="cShape_2_" class="st1" d="M160,80c0,5.5-0.5,10.8-1.6,16H1.6C0.5,90.8,0,85.5,0,80c0-5.5,0.5-10.8,1.6-16h156.8
		C159.5,69.2,160,74.5,160,80z"/>
	<path id="cShape_1_" class="st1" d="M144,32H16C30.6,12.6,53.8,0,80,0S129.4,12.6,144,32z"/>
	<path id="cShape" class="st1" d="M144,128c-14.6,19.4-37.8,32-64,32c-5.5,0-10.8-0.5-16-1.6c-5.2-1.1-10.2-2.6-15-4.6
		c-13.2-5.5-24.5-14.5-33-25.8H144z"/>
</g>
</svg>
