<?xml version="1.0" encoding="utf-8"?>
<!-- Generator: Adobe Illustrator 22.0.1, SVG Export Plug-In . SVG Version: 6.00 Build 0)  -->
<svg version="1.1" id="Layer" xmlns="http://www.w3.org/2000/svg" xmlns:xlink="http://www.w3.org/1999/xlink" x="0px" y="0px"
	 viewBox="0 0 160 160" style="enable-background:new 0 0 160 160;" xml:space="preserve">
<style type="text/css">
	.st0{fill:#F4FF8E;}
	.st1{fill:#00EBC8;}
	.st2{fill:#FF6478;}
	.st3{fill:#50B4E6;}
</style>
<path id="paletteS_4_" class="st0" d="M80,80c0,10-3.7,19.1-9.7,26.1C62.9,114.6,52.1,120,40,120c-21.7,0-39.3-17.2-40-38.8
	c0-0.4,0-0.8,0-1.2c0-0.4,0-0.8,0-1.2C0.7,57.2,18.3,40,40,40C62.1,40,80,57.9,80,80z"/>
<path id="paletteS_3_" class="st1" d="M120,40c0,22.1-17.9,40-40,40S40,62.1,40,40C40,18.6,56.8,1.1,77.9,0c0.3,0,0.5,0,0.8,0
	c0.4,0,0.8,0,1.2,0s0.8,0,1.2,0c0.3,0,0.5,0,0.8,0C103.2,1.1,120,18.6,120,40z"/>
<path id="paletteS_2_" class="st2" d="M160,80c0,0.4,0,0.8,0,1.2c0,0.1,0,0.1,0,0.2c-0.8,21.4-18.4,38.6-40,38.6
	c-24.1,0-38.7-22.1-39.9-37.6C80,81.4,80,80.6,80,80c0.3-16,14.9-40,40-40c21.6,0,39.2,17.1,40,38.6c0,0.1,0,0.1,0,0.2
	C160,79.2,160,79.6,160,80z"/>
<path id="paletteS_1_" class="st3" d="M120,120c0,21.7-17.2,39.3-38.8,40c-0.4,0-0.8,0-1.2,0s-0.8,0-1.2,0
	C57.2,159.3,40,141.7,40,120c0-22.1,17.9-40,40-40S120,97.9,120,120z"/>
<path id="paletteS" class="st0" d="M80,80c0,10-3.7,19.1-9.7,26.1C63,114.6,52.1,120,40,120V80H80z"/>
</svg>
