<?xml version="1.0" encoding="utf-8"?>
<!-- Generator: Adobe Illustrator 22.0.1, SVG Export Plug-In . SVG Version: 6.00 Build 0)  -->
<svg version="1.1" id="Layer" xmlns="http://www.w3.org/2000/svg" xmlns:xlink="http://www.w3.org/1999/xlink" x="0px" y="0px"
	 viewBox="0 0 160 160" style="enable-background:new 0 0 160 160;" xml:space="preserve">
<style type="text/css">
	.st0{display:none;}
	.st1{display:inline;fill:#FFFFFF;}
	.st2{fill:#64FFC8;}
	.st3{fill:#FFFFFF;}
	.st4{display:none;fill:#FFFFFF;}
</style>
<g id="Group_3_" class="st0">
	<circle id="shareS_13_" class="st1" cx="-146.7" cy="81" r="20"/>
	<circle id="shareS_12_" class="st1" cx="-77.6" cy="117.2" r="20"/>
	<circle id="shareS_11_" class="st1" cx="-77.6" cy="43.8" r="20"/>
	
		<rect x="-151.8" y="56.1" transform="matrix(0.8805 -0.4741 0.4741 0.8805 -43.0085 -45.691)" class="st1" width="79.4" height="12.8"/>
	
		<rect x="-118.5" y="59.3" transform="matrix(0.4741 -0.8805 0.8805 0.4741 -146.1756 -46.6251)" class="st1" width="12.8" height="79.4"/>
</g>
<circle id="Circle" class="st2" cx="80" cy="80" r="80"/>
<path id="shareS" class="st3" d="M120.5,113c0,9.9-8.1,18-18,18s-18-8.1-18-18c0-0.9,0.1-1.8,0.2-2.6L53,93.3
	c-3.2,3.1-7.6,5.1-12.6,5.1c-9.9,0-18-8.1-18-18s8.1-18,18-18c4.8,0,9.1,1.8,12.2,4.9L84.8,50c-0.2-1-0.3-2-0.3-3.1
	c0-9.9,8.1-18,18-18s18,8.1,18,18s-8.1,18-18,18c-4.8,0-9.1-1.8-12.3-4.9l-32,17.4c0.2,1,0.3,2,0.3,3c0,0.9-0.1,1.8-0.2,2.6
	L90,100.1c3.2-3.1,7.6-5.1,12.6-5.1C112.5,95,120.5,103,120.5,113z"/>
<path id="shareS_1_" class="st4" d="M124,117.2c0,11-9,20-20,20s-20-9-20-20c0-1,0.1-2,0.2-2.9L49,95.3c-3.6,3.5-8.5,5.7-14,5.7
	c-11,0-20-9-20-20s9-20,20-20c5.3,0,10.1,2,13.6,5.4l35.7-19.2C84.1,46.1,84,45,84,43.8c0-11,9-20,20-20s20,9,20,20s-9,20-20,20
	c-5.3,0-10.1-2-13.7-5.4L54.7,77.7c0.2,1.1,0.3,2.2,0.3,3.3c0,1-0.1,2-0.2,2.9l35.3,19c3.6-3.5,8.5-5.7,14-5.7
	C115.1,97.2,124,106.1,124,117.2z"/>
</svg>
