<?xml version="1.0" encoding="utf-8"?>
<!-- Generator: Adobe Illustrator 22.0.1, SVG Export Plug-In . SVG Version: 6.00 Build 0)  -->
<svg version="1.1" id="Layer" xmlns="http://www.w3.org/2000/svg" xmlns:xlink="http://www.w3.org/1999/xlink" x="0px" y="0px"
	 viewBox="0 0 160 160" style="enable-background:new 0 0 160 160;" xml:space="preserve">
<style type="text/css">
	.st0{display:none;}
	.st1{display:inline;fill:#FFFFFF;}
	.st2{fill:#64FFC8;}
	.st3{fill:#FFFFFF;}
</style>
<g id="Group_3_" class="st0">
	<circle id="shareS_13_" class="st1" cx="-146.7" cy="81" r="20"/>
	<circle id="shareS_12_" class="st1" cx="-77.6" cy="117.2" r="20"/>
	<circle id="shareS_11_" class="st1" cx="-77.6" cy="43.8" r="20"/>
	
		<rect x="-118.5" y="22.7" transform="matrix(0.4741 0.8805 -0.8805 0.4741 -4.0315 131.5717)" class="st1" width="12.8" height="79.4"/>
	
		<rect x="-118.5" y="59.4" transform="matrix(0.4741 -0.8805 0.8805 0.4741 -146.2284 -46.6369)" class="st1" width="12.8" height="79.4"/>
</g>
<circle id="Circle" class="st2" cx="80" cy="80" r="80"/>
<path id="shareS" class="st3" d="M124,117.2c0,11-9,20-20,20c-11,0-20-9-20-20c0-1,0.1-2,0.2-2.9L49,95.3c-3.6,3.5-8.5,5.7-14,5.7
	c-11,0-20-9-20-20c0-11,9-20,20-20c5.3,0,10.1,2,13.6,5.4l35.7-19.2C84.1,46.1,84,45,84,43.8c0-11,9-20,20-20c11,0,20,9,20,20
	c0,11-9,20-20,20c-5.3,0-10.1-2-13.7-5.4L54.7,77.7c0.2,1.1,0.3,2.2,0.3,3.3c0,1-0.1,2-0.2,2.9l35.3,19c3.6-3.5,8.5-5.7,14-5.7
	C115.1,97.2,124,106.1,124,117.2z"/>
</svg>
