<?xml version="1.0" encoding="utf-8"?>
<!-- Generator: Adobe Illustrator 22.0.1, SVG Export Plug-In . SVG Version: 6.00 Build 0)  -->
<svg version="1.1" id="Layer" xmlns="http://www.w3.org/2000/svg" xmlns:xlink="http://www.w3.org/1999/xlink" x="0px" y="0px"
	 viewBox="0 0 160 160" style="enable-background:new 0 0 160 160;" xml:space="preserve">
<style type="text/css">
	.st0{display:none;}
	.st1{display:inline;fill:#FFFFFF;}
	.st2{fill:#64FFC8;}
	.st3{fill:#FFFFFF;}
</style>
<g id="Group" class="st0">
	<circle id="shareS_4_" class="st1" cx="-247" cy="-81" r="20"/>
	<circle id="shareS_3_" class="st1" cx="-169" cy="-41" r="20"/>
	<circle id="shareS_2_" class="st1" cx="-169" cy="-123" r="20"/>
	
		<rect id="shareS_1_" x="-267" y="-106" transform="matrix(0.866 -0.5 0.5 0.866 22.3653 -118.5314)" class="st1" width="114" height="10"/>
	
		<rect id="shareS" x="-267" y="-66" transform="matrix(0.866 0.5 -0.5 0.866 -58.6347 96.8276)" class="st1" width="114" height="10"/>
</g>
<circle id="Circle" class="st2" cx="80" cy="80" r="80"/>
<path id="Share" class="st3" d="M129,121c0,11-9,20-20,20s-20-9-20-20c0-0.7,0-1.4,0.1-2l-43-24.8c-3.7,4.2-9,6.9-15.1,6.9
	c-11,0-20-9-20-20s9-20,20-20c6,0,11.4,2.7,15.1,6.9l43.3-25C89.1,41.6,89,40.3,89,39c0-11,9-20,20-20s20,9,20,20s-9,20-20,20
	c-6.1,0-11.6-2.8-15.3-7.1L50.6,76.8c0.3,1.3,0.4,2.7,0.4,4.2s-0.2,2.8-0.4,4.2l42.1,24.3c3.6-5.1,9.6-8.5,16.3-8.5
	C120,101,129,110,129,121z"/>
</svg>
