<?xml version="1.0" encoding="utf-8"?>
<!-- Generator: Adobe Illustrator 21.0.1, SVG Export Plug-In . SVG Version: 6.00 Build 0)  -->
<svg version="1.1" id="Слой_1" xmlns="http://www.w3.org/2000/svg" xmlns:xlink="http://www.w3.org/1999/xlink" x="0px" y="0px"
	 viewBox="0 0 600 600" style="enable-background:new 0 0 600 600;" xml:space="preserve">
<style type="text/css">
	.st0{fill:#2EC4FF;}
	.st1{fill:#FF6B45;}
	.st2{fill:#FFC02E;}
	.st3{fill:#F6FF5C;}
	.st4{fill:none;stroke:#000000;stroke-width:9;stroke-miterlimit:10;}
	.st5{stroke:#000000;stroke-width:3.4706;stroke-miterlimit:10;}
	.st6{fill:none;stroke:#000000;stroke-width:5;stroke-miterlimit:10;}
	.st7{stroke:#000000;stroke-width:4.3641;stroke-miterlimit:10;}
	.st8{fill:none;stroke:#000000;stroke-width:3;stroke-miterlimit:10;}
</style>
<path class="st0" d="M300,0v141.3c-44.1,0-84.1,17.6-113.3,46.1l-101-49.7L141.9,267c-1,4.1-1.7,8.3-2.4,12.6
	c-1,6.6-1.5,13.3-1.7,20.1H0V0H300z"/>
<path class="st1" d="M600,0v299.8H462.2c-0.2-6.9-0.7-13.6-1.7-20.3c-0.7-4.9-1.7-9.8-2.8-14.5L513,137.7l-100.1,49.2
	c-29.2-28.3-69-45.7-112.8-45.7V0H600z"/>
<path class="st2" d="M300,465.8V600H0V300.3h137.8c0,1.1,0,2.2,0,3.3c0,6,0.3,11.9,1,17.8c1.6,14.9,5.3,29.2,10.6,42.6
	C173.3,423.6,231.7,465.8,300,465.8z"/>
<path class="st3" d="M600,300.3V600H300V465.8c68,0,126.2-41.8,150.3-101.1c5.5-13.5,9.3-28,10.9-43.1c0.7-5.9,1-12,1-18.1
	c0-1.1,0-2.2,0-3.3H600z"/>
<path class="st4" d="M462.3,303.5c0,6.1-0.3,12.1-1,18.1c-1.7,15.1-5.4,29.5-10.9,43.1C426.2,424,368,465.8,300,465.8
	c-68.3,0-126.7-42.2-150.6-101.9c-5.4-13.4-9-27.7-10.6-42.6c-0.6-5.8-1-11.8-1-17.8c0-1.1,0-2.2,0-3.3c0-0.2,0-0.3,0-0.5
	c0.2-6.8,0.7-13.5,1.7-20.1c0.6-4.3,1.4-8.4,2.4-12.6c7.1-30.8,23-58.3,44.8-79.7c29.2-28.5,69.2-46.1,113.3-46.1
	c43.8,0,83.6,17.4,112.8,45.7c21.6,20.9,37.4,47.8,44.8,78.1c1.2,4.8,2.1,9.6,2.8,14.5c1,6.6,1.6,13.4,1.7,20.3c0,0.2,0,0.3,0,0.5
	C462.2,301.3,462.3,302.4,462.3,303.5z"/>
<circle class="st5" cx="224.6" cy="243.3" r="7.4"/>
<line class="st6" x1="235" y1="303.5" x2="109.5" y2="392"/>
<line class="st6" x1="225" y1="300" x2="91" y2="333"/>
<line class="st6" x1="232" y1="287" x2="25.5" y2="270.5"/>
<circle class="st6" cx="228" cy="242.9" r="26.9"/>
<line class="st4" x1="186.7" y1="187.4" x2="186.7" y2="187.4"/>
<path class="st7" d="M298.5,287v36.2c-12.4-11.6-27.4-17.3-27.4-27.5c0-9.3,12.1-8.7,12.1-8.7H298.5z"/>
<path class="st8" d="M298.5,323.2c0,0,7.2,134.5-82.6,82.6"/>
<path class="st7" d="M300.1,287v36.2c12.4-11.6,27.4-17.3,27.4-27.5c0-9.3-12.1-8.7-12.1-8.7H300.1z"/>
<path class="st8" d="M300.1,323.2c0,0-7.2,134.5,82.6,82.6"/>
<line class="st6" x1="363.6" y1="303.5" x2="489.1" y2="392"/>
<line class="st6" x1="373.6" y1="300" x2="507.6" y2="333"/>
<line class="st6" x1="366.6" y1="287" x2="573.1" y2="270.5"/>
<circle class="st6" cx="370.6" cy="242.9" r="26.9"/>
<line class="st4" x1="457.6" y1="265" x2="456.8" y2="267"/>
<line class="st4" x1="412.8" y1="186.9" x2="411.9" y2="187.4"/>
<circle class="st5" cx="367.2" cy="243.1" r="7.4"/>
<polyline class="st4" points="411.9,187.4 513,137.7 456.8,267 "/>
<polyline class="st4" points="186.7,187.4 85.7,137.7 141.9,267 "/>
</svg>
