<?xml version="1.0" encoding="utf-8"?>
<!-- Generator: Adobe Illustrator 22.0.1, SVG Export Plug-In . SVG Version: 6.00 Build 0)  -->
<svg version="1.1" xmlns="http://www.w3.org/2000/svg" xmlns:xlink="http://www.w3.org/1999/xlink" x="0px" y="0px"
	 viewBox="0 0 160 160" style="enable-background:new 0 0 160 160;" xml:space="preserve">
<style type="text/css">
	.st0{display:none;}
	.st1{display:inline;fill:#FF6464;}
	.st2{fill:#FFFFFF;}
	.st3{fill:#A0FFC8;}
</style>
<g id="Слой_1" class="st0">
	<path class="st1" d="M160,80c0,44.2-35.8,80-80,80c-5.5,0-10.8-0.5-16-1.6V128h16c26.5,0,48-21.5,48-48c0-26.5-21.5-48-48-48H48
		v121.3C19.8,141,0,112.8,0,80C0,35.8,35.8,0,80,0S160,35.8,160,80z"/>
	<path class="st2" d="M80,32H48v160h16v-64h16c26.5,0,48-21.5,48-48S106.5,32,80,32z M80,112H64V48h16c17.7,0,32,14.3,32,32
		S97.7,112,80,112z"/>
	<path class="st1" d="M112,80c0,17.7-14.3,32-32,32H64V48h16C97.7,48,112,62.3,112,80z"/>
</g>
<g id="Слой_2">
	<path class="st2" d="M158.4,64H1.6C4,52.2,9,41.3,16,32h128C151,41.3,156,52.2,158.4,64z"/>
	<path class="st2" d="M158.4,96c-2.4,11.8-7.4,22.7-14.4,32H16c-7-9.3-12-20.2-14.4-32H158.4z"/>
	<path class="st3" d="M160,80c0,5.5-0.5,10.8-1.6,16H1.6C0.5,90.8,0,85.5,0,80c0-5.5,0.5-10.8,1.6-16h156.8
		C159.5,69.2,160,74.5,160,80z"/>
	<path class="st3" d="M144,32H16C30.6,12.6,53.8,0,80,0S129.4,12.6,144,32z"/>
	<path class="st3" d="M144,128c-14.6,19.4-37.8,32-64,32s-49.4-12.6-64-32H144z"/>
</g>
</svg>
