<?xml version="1.0" encoding="UTF-8"?>
<!DOCTYPE svg PUBLIC "-//W3C//DTD SVG 1.1//EN" "http://www.w3.org/Graphics/SVG/1.1/DTD/svg11.dtd">
<!-- Creator: CorelDRAW 2019 (64-Bit) -->
<svg xmlns="http://www.w3.org/2000/svg" xml:space="preserve" width="45px" height="45px" version="1.1" style="shape-rendering:geometricPrecision; text-rendering:geometricPrecision; image-rendering:optimizeQuality; fill-rule:evenodd; clip-rule:evenodd"
viewBox="0 0 45 45"
 xmlns:xlink="http://www.w3.org/1999/xlink"
 xmlns:xodm="http://www.corel.com/coreldraw/odm/2003">
 <defs>
  <style type="text/css">
   <![CDATA[
    .fil1 {fill:none}
    .fil0 {fill:rgb(245, 245, 245)}
   ]]>
  </style>
 </defs>
 <g id="Слой_x0020_1">
  <metadata id="CorelCorpID_0Corel-Layer"/>
  <path class="fil0" d="M25.55 16.69l0 0c0.53,0 0.97,0.43 0.97,0.96l0 14.21c0,0.53 -0.44,0.96 -0.97,0.96l0 0c-0.53,0 -0.97,-0.43 -0.97,-0.96l0 -14.21c0,-0.53 0.44,-0.96 0.97,-0.96zm-7.1 0l0 0c0.53,0 0.97,0.43 0.97,0.96l0 14.21c0,0.53 -0.44,0.96 -0.97,0.96l0 0c-0.53,0 -0.97,-0.43 -0.97,-0.96l0 -14.21c0,-0.53 0.44,-0.96 0.97,-0.96zm3.55 0l0 0c0.53,0 0.97,0.43 0.97,0.96l0 14.21c0,0.53 -0.44,0.96 -0.97,0.96l0 0c-0.53,0 -0.97,-0.43 -0.97,-0.96l0 -14.21c0,-0.53 0.44,-0.96 0.97,-0.96zm-6.2 -1.62l12.4 0c0.85,0 1.55,0.7 1.55,1.55l0 16.27c0,0.85 -0.7,1.55 -1.55,1.55l-12.4 0c-0.85,0 -1.55,-0.7 -1.55,-1.55l0 -16.27c0,-0.85 0.7,-1.55 1.55,-1.55zm4.59 -5.16l3.22 0c0.71,0 1.3,0.58 1.3,1.29l4.03 0c0.8,0 1.45,0.65 1.45,1.45 0,0.8 -0.65,1.45 -1.45,1.45l-13.88 0c-0.8,0 -1.45,-0.65 -1.45,-1.45 0,-0.8 0.65,-1.45 1.45,-1.45l4.03 0c0,-0.71 0.59,-1.29 1.3,-1.29z"/>
  <rect class="fil1" x="-0.5" y="0.5" width="45" height="45"/>
 </g>
</svg>
